<?xml version="1.0" encoding="UTF-8" standalone="no"?>
<svg
   xmlns:dc="http://purl.org/dc/elements/1.1/"
   xmlns:cc="http://creativecommons.org/ns#"
   xmlns:rdf="http://www.w3.org/1999/02/22-rdf-syntax-ns#"
   xmlns:svg="http://www.w3.org/2000/svg"
   xmlns="http://www.w3.org/2000/svg"
   xmlns:sodipodi="http://sodipodi.sourceforge.net/DTD/sodipodi-0.dtd"
   xmlns:inkscape="http://www.inkscape.org/namespaces/inkscape"
   width="15.6"
   height="16.114"
   version="1.1"
   id="svg38"
   sodipodi:docname="favicon.svg"
   inkscape:version="1.0.2 (e86c8708, 2021-01-15)">
  <metadata
     id="metadata44">
    <rdf:RDF>
      <cc:Work
         rdf:about="">
        <dc:format>image/svg+xml</dc:format>
        <dc:type
           rdf:resource="http://purl.org/dc/dcmitype/StillImage" />
        <dc:title />
      </cc:Work>
    </rdf:RDF>
  </metadata>
  <defs
     id="defs42" />
  <sodipodi:namedview
     pagecolor="#ffffff"
     bordercolor="#666666"
     borderopacity="1"
     objecttolerance="10"
     gridtolerance="10"
     guidetolerance="10"
     inkscape:pageopacity="0"
     inkscape:pageshadow="2"
     inkscape:window-width="1440"
     inkscape:window-height="805"
     id="namedview40"
     showgrid="false"
     inkscape:snap-bbox="true"
     inkscape:snap-page="true"
     inkscape:zoom="10.805058"
     inkscape:cx="25.872006"
     inkscape:cy="11.588734"
     inkscape:window-x="0"
     inkscape:window-y="25"
     inkscape:window-maximized="0"
     inkscape:current-layer="g36"
     inkscape:document-rotation="0" />
  <g
     fill="none"
     fill-rule="evenodd"
     id="g36">
    <path
       id="path28"
       d="m 118.14258,0 c -1.508,0 -2.8625,0.35721875 -4.0625,1.0742188 -1.2,0.717 -2.13478,1.7142812 -2.80078,2.9882812 -0.666,1.273 -0.99805,2.7049687 -0.99805,4.2929688 0,1.6099999 0.34983,3.0381562 1.04883,4.2851562 0.699,1.246 1.66081,2.202141 2.88281,2.869141 1.222,0.667 2.59791,1.001953 4.12891,1.001953 2.047,0 3.7159,-0.674531 5.0039,-2.019531 h 0.0645 v 1.753906 c 0,1.17 -0.42911,2.140109 -1.28711,2.912109 -0.86,0.772 -2.07077,1.158203 -3.63477,1.158203 -1.068,0 -2.00445,-0.131484 -2.81445,-0.396484 -0.809,-0.265 -1.74378,-0.678235 -2.80078,-1.240234 l -0.89063,3.339843 c 0.925,0.552 1.9651,0.977391 3.1211,1.275391 1.156,0.298 2.35561,0.445312 3.5996,0.445312 1.20001,0 2.27471,-0.139875 3.22071,-0.421875 0.947,-0.281 1.74272,-0.671828 2.38672,-1.173828 a 6.385,6.385 0 0 0 1.60156,-1.84375 8.14,8.14 0 0 0 0.91601,-2.382812 c 0.18801,-0.86 0.28126,-1.804078 0.28126,-2.830078 V 0.265625 h -3.78126 v 1.7363281 h -0.0664 A 7.059,7.059 0 0 0 120.9082,0.51171875 7.62,7.62 0 0 0 118.14258,0 Z M 34.183594,0.01757813 c -0.969,0 -1.901828,0.21634374 -2.798828,0.65234375 A 6.976,6.976 0 0 0 29.03125,2.5488281 H 28.98242 V 0.265625 H 25.199217 V 16.792969 H 28.98242 V 8.5527344 c 0,-1.577 0.372234,-2.8204688 1.115234,-3.7304688 0.743,-0.91 1.691657,-1.3652344 2.847656,-1.3652344 2.19,0 3.28711,1.5784219 3.28711,4.7324219 v 8.6191409 h 3.78125 V 8.5527344 c 0,-1.577 0.365656,-2.8204688 1.097656,-3.7304688 0.733,-0.91 1.65,-1.3652344 2.75,-1.3652344 2.158,0 3.238281,1.5784219 3.238281,4.7324219 v 8.6191409 h 3.78125 V 7.2285156 c 0,-2.415 -0.498953,-4.2190156 -1.501953,-5.4160156 -1.002,-1.197 -2.433922,-1.79492187 -4.294922,-1.79492187 -1.222,0 -2.339562,0.23412499 -3.351562,0.70312499 A 6.833,6.833 0 0 0 39.171875,2.7636719 h -0.06641 C 38.125465,0.93267187 36.48559,0.01757813 34.18359,0.01757813 Z m 26.898437,0 a 7.76,7.76 0 0 0 -5.68164,2.41406247 c -0.705,0.75 -1.259969,1.6604688 -1.667969,2.7304688 a 9.589,9.589 0 0 0 -0.611328,3.4394531 c 0,1.258 0.204328,2.4156095 0.611328,3.4746095 0.408,1.059 0.962969,1.953641 1.667969,2.68164 a 7.348,7.348 0 0 0 2.535156,1.695313 8.325,8.325 0 0 0 3.179687,0.603516 c 2.246,0 3.996954,-0.827422 5.251954,-2.482422 h 0.05078 v 2.21875 h 3.615234 V 0.265625 h -3.78125 V 2.25 h -0.06641 c -1.255,-1.489 -2.955516,-2.23242187 -5.103516,-2.23242187 z m 21.679688,0 A 7.373,7.373 0 0 0 79.705078,0.66210938 6.958,6.958 0 0 0 77.228516,2.53125 h -0.04883 V 0.26367188 H 73.396484 V 16.791016 h 3.783204 V 8.4863281 c 0,-1.588 0.388062,-2.8220781 1.164062,-3.7050781 0.777,-0.882 1.812328,-1.3242188 3.111328,-1.3242188 0.595,0 1.105297,0.078422 1.529297,0.2324219 0.424,0.155 0.796234,0.4049532 1.115234,0.7519531 0.32,0.348 0.554985,0.8200157 0.708985,1.4160157 0.154,0.595 0.230468,1.3216406 0.230468,2.1816406 v 8.7695315 h 3.783204 V 7.0644531 c 0,-2.393 -0.535375,-4.1673125 -1.609375,-5.3203125 -1.072,-1.15199998 -2.558172,-1.72656247 -4.451172,-1.72656247 z m 16.246093,0 A 7.76,7.76 0 0 0 93.324219,2.4316406 c -0.704,0.75 -1.259969,1.6604688 -1.667969,2.7304688 a 9.589,9.589 0 0 0 -0.609375,3.4394531 c 0,1.258 0.202375,2.4156095 0.609375,3.4746095 0.408,1.059 0.963969,1.953641 1.667969,2.68164 a 7.348,7.348 0 0 0 2.537109,1.695313 8.325,8.325 0 0 0 3.177734,0.603516 c 2.245998,0 3.997908,-0.827422 5.253908,-2.482422 h 0.0488 v 2.21875 H 107.957 V 0.265625 h -3.78125 V 2.25 h -0.0664 c -1.255,-1.489 -2.95457,-2.23242187 -5.101568,-2.23242187 z m 38.517578,0 a 8.191,8.191 0 0 0 -3.1875,0.61914062 c -0.99,0.41399995 -1.84455,0.98951565 -2.56055,1.72851565 -0.715,0.739 -1.27659,1.6392656 -1.68359,2.6972656 -0.407,1.06 -0.61133,2.2110312 -0.61133,3.4570312 0,1.6879998 0.37042,3.1851878 1.10742,4.4921878 0.738,1.307 1.74449,2.308906 3.02149,3.003906 1.277,0.695 2.71454,1.041016 4.31055,1.041016 1.542,0 2.89831,-0.28075 4.07031,-0.84375 1.173,-0.562 2.13381,-1.323203 2.88281,-2.283203 l -2.64258,-2.265626 c -1.035,1.301001 -2.40628,1.951172 -4.11328,1.951172 -1.21,0 -2.23708,-0.336765 -3.08008,-1.009765 -0.842,-0.672 -1.38395,-1.592719 -1.62695,-2.761719 h 12.02539 c 0.066,-0.397 0.0977,-0.8998594 0.0977,-1.5058594 0,-1.599 -0.32461,-3.0271562 -0.97461,-4.2851562 a 7.198,7.198 0 0 0 -2.80664,-2.9609375 c -1.222,-0.71700002 -2.63252,-1.07421877 -4.22852,-1.07421877 z M 61.726562,3.4570312 c 1.343,0 2.456751,0.4934688 3.34375,1.4804688 0.886,0.988 1.330079,2.2156406 1.330079,3.6816406 0,1.4670004 -0.455282,2.6676094 -1.363282,3.5996094 -0.909,0.932 -2.016171,1.396484 -3.326171,1.396484 -1.399001,0 -2.538922,-0.464484 -3.419922,-1.396484 -0.88,-0.932 -1.320313,-2.132609 -1.320313,-3.5996094 0,-1.555 0.453328,-2.8050468 1.361328,-3.7480468 0.909,-0.9430001 2.040532,-1.4140625 3.394531,-1.4140626 z m 37.923829,0 c 1.342999,0 2.457749,0.4934688 3.343749,1.4804688 0.886,0.988 1.33008,2.2156406 1.33008,3.6816406 0,1.4670004 -0.45333,2.6676094 -1.36133,3.5996094 -0.908,0.932 -2.01812,1.396484 -3.328124,1.396484 -1.398,0 -2.537969,-0.464484 -3.417969,-1.396484 -0.881,-0.932 -1.322266,-2.132609 -1.322266,-3.5996094 0,-1.555 0.455281,-2.8050469 1.363281,-3.7480468 0.908001,-0.9430001 2.038579,-1.4140625 3.392579,-1.4140626 z m 38.074219,0 c 1.057,0 1.92919,0.2995313 2.61719,0.8945313 0.688,0.596 1.15253,1.4056406 1.39453,2.4316406 h -8.25586 c 0.264,-1.059 0.77615,-1.8780312 1.53515,-2.4570312 0.76,-0.579 1.66299,-0.8691407 2.70899,-0.8691407 z m -18.88867,0.033203 c 1.332,0 2.44212,0.4365937 3.32812,1.3085937 0.886,0.871 1.33008,2.001625 1.33008,3.390625 0,1.401 -0.43287,2.5548441 -1.29687,3.4648441 -0.864,0.91 -1.98533,1.365234 -3.36133,1.365234 v 0.002 c -1.365,0 -2.49096,-0.434781 -3.37696,-1.300781 -0.887,-0.865 -1.33007,-2.026422 -1.33007,-3.482422 0,-1.4 0.43468,-2.5408281 1.30468,-3.4238281 0.87,-0.882 2.00435,-1.3242187 3.40235,-1.3242187 z M 26.505859,6.2773438 c 0.19316,0.023446 0.457031,0.076829 0.81836,0.15625 0.139247,0.030607 0.01598,0.2851726 0.01758,0.4277343 0.01778,1.6296477 -0.02608,3.2588969 -0.09961,4.8867189 -0.05951,1.317382 -1.391932,1.266586 -1.332032,-0.05078 0.06467,-1.422107 0.09886,-2.8457163 0.0957,-4.2695316 -0.01646,-0.09058 -0.03722,-0.1767542 -0.03711,-0.2851563 v -0.234375 c 0.0025,-0.076832 0.0063,-0.121039 0.0078,-0.1835937 -0.03198,-0.1074762 -0.06244,-0.2145733 0.01172,-0.2324219 0.0327,-0.1938978 0.138464,-0.2608606 0.517578,-0.2148437 z" />
    <g
       fill="#f3603c"
       id="g34">
      <path
         d="m 2.786,10.286 c 1.538,0 2.785,1.279 2.785,2.857 C 5.571,14.72 4.324,16 2.786,16 1.247,16 0,14.72 0,13.143 0,11.565 1.247,10.286 2.786,10.286 Z M 2.786,0 C 4.324,0 5.57,1.28 5.57,2.857 5.57,4.435 4.323,5.714 2.785,5.714 1.247,5.714 0,4.435 0,2.857 0,1.28 1.247,0 2.786,0 Z m 10.028,0 c 1.539,0 2.786,1.28 2.786,2.857 0,1.578 -1.247,2.857 -2.786,2.857 -1.538,0 -2.785,-1.279 -2.785,-2.857 C 10.029,1.28 11.276,0 12.814,0 Z"
         id="path30" />
      <ellipse
         cx="12.814"
         cy="13.257"
         opacity="0.5"
         rx="2.786"
         ry="2.8570001"
         id="ellipse32" />
    </g>
  </g>
</svg>
